<?xml version="1.0" standalone="no"?>
<!DOCTYPE svg PUBLIC "-//W3C//DTD SVG 20010904//EN"
 "http://www.w3.org/TR/2001/REC-SVG-20010904/DTD/svg10.dtd">
<svg version="1.0" xmlns="http://www.w3.org/2000/svg"
 width="500.000000pt" height="500.000000pt" viewBox="0 0 500.000000 500.000000"
 preserveAspectRatio="xMidYMid meet">
<metadata>
Created by potrace 1.16, written by Peter Selinger 2001-2019
</metadata>
<g transform="translate(0.000000,500.000000) scale(0.100000,-0.100000)"
fill="#000000" stroke="none">
<path d="M2257 4485 c-143 -18 -218 -36 -360 -85 -228 -79 -480 -211 -552
-291 -104 -115 -185 -465 -211 -909 -5 -81 -12 -126 -25 -152 -37 -72 -110
-380 -94 -396 2 -3 28 21 58 52 29 31 58 56 65 56 9 0 12 -30 12 -108 0 -103
-1 -109 -23 -119 -40 -19 -87 -65 -109 -106 -26 -51 -35 -151 -18 -201 23 -69
94 -131 172 -150 18 -4 29 -14 32 -29 3 -12 15 -73 26 -136 68 -359 193 -656
383 -906 65 -86 226 -243 321 -314 190 -141 232 -164 337 -181 108 -17 457 -9
525 14 106 34 320 193 474 352 253 262 410 592 495 1034 25 134 24 130 46 130
52 0 139 70 175 140 24 47 24 151 0 214 -17 44 -17 49 -1 82 32 67 1 154 -89
249 l-38 40 -3 320 c-2 338 -8 397 -60 641 -48 229 -107 365 -184 422 -111 82
-374 209 -549 266 -62 20 -166 46 -230 57 -152 27 -425 33 -575 14z m448 -86
c130 -16 242 -43 394 -96 232 -80 470 -217 515 -296 62 -109 146 -513 146
-703 l0 -66 -41 79 c-23 43 -57 99 -76 125 -55 76 -166 148 -227 148 -58 0
-140 -42 -197 -100 -31 -31 -62 -68 -69 -81 l-13 -24 24 22 c59 53 195 98 250
83 128 -37 216 -152 234 -306 7 -64 -8 -230 -25 -280 -10 -28 -46 -61 -57 -51
-2 3 -11 35 -18 71 -25 121 -100 211 -220 268 -66 30 -78 33 -201 36 -166 5
-235 -8 -477 -92 -311 -108 -326 -111 -592 -111 -210 0 -243 3 -385 29 -185
34 -183 33 -175 46 7 12 -7 13 -20 2 -6 -5 -30 -14 -54 -21 -72 -21 -166 -91
-232 -174 -44 -55 -49 -45 -23 44 22 73 77 180 115 223 45 52 144 123 227 164
39 20 72 40 72 44 0 13 -63 9 -114 -6 -46 -14 -47 -14 -40 7 27 92 113 221
177 269 60 43 168 96 231 112 105 28 200 29 386 6 275 -35 415 -22 584 55 132
59 265 87 347 74 69 -11 154 -46 205 -85 l36 -28 -58 -29 c-63 -32 -161 -123
-188 -176 l-17 -33 23 7 c13 4 38 16 56 26 18 10 39 19 47 19 8 0 18 6 22 14
11 19 139 82 193 96 75 18 73 16 54 51 -22 43 -106 123 -176 169 -100 66 -290
99 -508 90 l-125 -6 117 -2 c64 -1 124 -5 132 -8 15 -6 -63 -42 -260 -119
-105 -41 -207 -49 -380 -30 -314 35 -455 30 -591 -21 -95 -35 -148 -70 -233
-153 -87 -86 -128 -157 -156 -273 -16 -65 -23 -78 -66 -117 l-48 -44 0 41 c0
166 99 642 151 729 23 37 166 131 306 201 170 85 442 166 623 185 80 9 311 6
395 -4z m557 -1248 c115 -45 214 -171 224 -285 5 -51 5 -52 -63 -132 -101
-122 -230 -269 -303 -349 -36 -38 -88 -97 -115 -130 -112 -135 -118 -139 -235
-161 -80 -14 -149 -19 -290 -18 -199 0 -305 14 -560 74 -395 93 -515 122 -529
130 -16 8 -44 83 -56 147 -4 17 -24 52 -46 76 l-39 45 0 109 c0 150 15 196 84
261 63 60 74 62 235 38 284 -43 352 -48 509 -43 195 6 309 37 550 148 84 38
223 88 297 105 91 21 265 13 337 -15z m456 -391 c60 -30 95 -56 136 -102 48
-53 86 -121 74 -133 -2 -3 -27 3 -56 12 -42 14 -58 14 -91 4 -55 -16 -95 -53
-116 -103 -9 -24 -23 -50 -32 -60 -8 -9 -21 -42 -30 -75 -11 -42 -28 -73 -61
-112 -26 -29 -72 -84 -102 -122 -30 -37 -172 -213 -315 -389 -143 -177 -278
-346 -300 -376 l-40 -56 -49 5 c-57 5 -76 24 -76 74 0 36 -23 56 -76 68 -18 3
-39 14 -48 24 -19 21 -42 -9 269 345 116 132 228 261 250 287 40 47 81 93 257
287 51 57 107 120 123 141 17 21 67 77 111 125 l80 86 80 -47 c43 -27 90 -56
104 -66 30 -21 40 -22 40 -3 0 8 -24 29 -52 46 -29 18 -90 57 -136 87 -45 30
-88 53 -95 50 -7 -2 0 -10 15 -17 l27 -13 -96 -106 c-52 -58 -130 -144 -172
-190 -42 -47 -88 -100 -103 -118 -14 -19 -65 -75 -112 -126 -46 -51 -100 -111
-118 -134 -18 -22 -69 -81 -113 -130 -44 -50 -95 -108 -114 -129 -18 -22 -59
-68 -90 -104 -31 -36 -73 -85 -93 -110 -61 -75 -134 -150 -146 -150 -7 0 -22
10 -33 21 l-21 21 74 77 c41 42 91 96 113 121 21 25 71 81 110 125 40 44 85
96 101 115 16 19 63 73 104 120 42 47 166 186 275 310 359 405 412 460 440
460 13 0 59 -18 103 -40z m141 -309 c47 -33 65 -68 69 -136 8 -116 -53 -195
-150 -195 -55 0 -89 29 -112 97 -21 63 -21 66 13 49 41 -21 107 -31 115 -17
11 18 -13 79 -40 100 -29 23 -30 31 -4 80 28 55 55 61 109 22z m-2610 -7 c26
-33 27 -50 3 -56 -22 -6 -66 -62 -77 -97 -7 -23 -7 -23 64 -19 39 2 71 3 71 3
0 -1 -7 -23 -16 -48 -48 -142 -234 -70 -234 90 0 49 35 120 68 138 45 24 97
19 121 -11z m377 -294 c65 -16 151 -40 189 -54 l70 -25 -155 6 c-85 3 -199 2
-252 -2 l-98 -7 0 -43 c0 -24 -5 -55 -11 -69 -14 -31 -6 -66 25 -103 13 -15
25 -37 27 -47 6 -32 25 -29 50 8 13 19 33 37 44 40 11 3 104 9 208 12 l187 7
0 -44 c1 -110 22 -344 34 -374 14 -32 14 -33 -29 -69 -56 -46 -95 -127 -95
-195 0 -44 3 -51 20 -51 22 0 42 28 60 83 7 22 31 58 54 82 33 34 50 45 87 50
90 13 84 32 84 -250 0 -165 -5 -278 -14 -333 -7 -45 -15 -82 -17 -82 -12 0
-100 64 -176 128 -147 123 -291 298 -369 447 -23 44 -45 85 -49 90 -12 15 -79
179 -106 260 -14 38 -43 161 -65 273 l-41 204 48 50 49 50 61 -6 c33 -3 114
-19 180 -36z m2035 -307 c-103 -503 -365 -904 -755 -1158 -142 -93 -159 -97
-386 -98 -186 -1 -301 11 -315 33 -3 4 57 39 132 77 76 38 228 115 338 172
l200 102 77 97 c42 53 114 143 160 200 46 57 92 118 102 135 11 18 61 82 111
142 50 61 102 126 115 145 13 19 53 70 88 114 35 43 84 110 110 149 28 42 48
64 50 55 2 -9 -11 -83 -27 -165z m-1294 54 c10 -2 -103 -226 -126 -250 -7 -6
-111 234 -111 254 0 5 205 1 237 -4z m27 -478 c32 -55 53 -69 99 -69 55 0 107
-31 107 -64 0 -68 47 -106 129 -106 60 0 86 -27 86 -88 0 -27 -6 -56 -13 -64
-11 -14 -284 -158 -297 -158 -3 0 -5 14 -5 30 0 64 -57 129 -131 151 -36 11
-45 10 -86 -10 -42 -20 -45 -20 -41 -4 23 88 124 413 128 413 3 0 14 -14 24
-31z m-81 -451 c9 -7 30 -38 46 -67 l30 -55 -105 -58 c-110 -61 -124 -66 -124
-45 0 23 57 186 74 212 18 27 52 33 79 13z"/>
<path d="M2220 3398 c-99 -61 -253 -75 -372 -34 -77 25 -86 17 -35 -31 100
-97 300 -77 417 42 48 49 45 57 -10 23z"/>
<path d="M2632 2795 c-38 -16 -102 -64 -102 -75 0 -5 24 1 53 12 69 26 182 22
245 -11 52 -27 54 -16 5 31 -60 59 -130 74 -201 43z"/>
<path d="M1757 2746 c-155 -57 -173 -278 -29 -348 52 -25 133 -21 185 9 72 41
100 169 57 258 -37 76 -131 112 -213 81z m157 -62 c33 -33 33 -68 1 -99 -54
-55 -142 -12 -136 68 4 56 89 76 135 31z"/>
<path d="M2589 2637 c-97 -41 -160 -100 -194 -181 -21 -49 -19 -67 4 -30 69
113 267 172 386 114 55 -27 126 -96 150 -146 20 -42 35 -32 35 25 0 84 -46
160 -127 208 -66 39 -176 43 -254 10z"/>
<path d="M2055 2299 c30 -102 75 -139 168 -139 63 0 113 24 145 70 33 49 27
53 -22 18 -86 -60 -193 -45 -267 39 -27 31 -30 33 -24 12z"/>
</g>
</svg>
